<svg xmlns="http://www.w3.org/2000/svg" xmlns:xlink="http://www.w3.org/1999/xlink" version="1.1" width="256" height="256" viewBox="0 0 256 256" xml:space="preserve">

<defs>
</defs>
<g style="stroke: none; stroke-width: 0; stroke-dasharray: none; stroke-linecap: butt; stroke-linejoin: miter; stroke-miterlimit: 10; fill: none; fill-rule: nonzero; opacity: 1;" transform="translate(1.4065934065934016 1.4065934065934016) scale(2.81 2.81)" >
	<path d="M 56.261 66.431 c -1.47 -2.563 -3.696 -5.233 -7.968 -4.5 l -12.684 2.297 c -4.405 0.36 -7.489 -3.472 -11.775 -3.092 l -7.873 0.699 l 2.234 25.177 l 8.675 -0.77 c 6.011 -0.533 11.616 4.215 17.193 3.72 c 6.093 -0.532 22.329 -11.095 39.189 -21.613 c 1.094 -0.682 1.495 -2.124 0.829 -3.228 c -3.434 -5.7 -8.861 -7.436 -13.304 -5.439 L 56.261 66.431 z" style="stroke: none; stroke-width: 1; stroke-dasharray: none; stroke-linecap: butt; stroke-linejoin: miter; stroke-miterlimit: 10; fill: rgb(252,204,134); fill-rule: nonzero; opacity: 1;" transform=" matrix(1 0 0 1 0 0) " stroke-linecap="round" />
	<path d="M 39.218 74.325 c 3.074 -0.254 6.209 -0.949 9.303 -1.896 c 3.098 -0.949 6.164 -2.148 9.187 -3.473 l -0.131 0.484 l -1.317 -3.008 l 1.932 2.655 c 0.102 0.14 0.071 0.337 -0.069 0.439 l -0.061 0.045 c -2.685 1.954 -5.462 3.815 -8.409 5.479 c -2.947 1.659 -6.069 3.129 -9.454 4.179 l -0.028 0.009 c -1.327 0.411 -2.737 -0.331 -3.149 -1.659 c -0.411 -1.327 0.331 -2.737 1.659 -3.149 C 38.855 74.375 39.043 74.341 39.218 74.325 z" style="stroke: none; stroke-width: 1; stroke-dasharray: none; stroke-linecap: butt; stroke-linejoin: miter; stroke-miterlimit: 10; fill: rgb(239,170,101); fill-rule: nonzero; opacity: 1;" transform=" matrix(1 0 0 1 0 0) " stroke-linecap="round" />
	<path d="M 18.526 90 H 7.936 c -1.293 0 -2.341 -1.048 -2.341 -2.341 V 58.905 c 0 -1.293 1.048 -2.341 2.341 -2.341 h 10.59 c 1.293 0 2.341 1.048 2.341 2.341 v 28.753 C 20.867 88.952 19.819 90 18.526 90 z" style="stroke: none; stroke-width: 1; stroke-dasharray: none; stroke-linecap: butt; stroke-linejoin: miter; stroke-miterlimit: 10; fill: rgb(56,134,198); fill-rule: nonzero; opacity: 1;" transform=" matrix(1 0 0 1 0 0) " stroke-linecap="round" />
	<circle cx="52.058" cy="26.458" r="26.458" style="stroke: none; stroke-width: 1; stroke-dasharray: none; stroke-linecap: butt; stroke-linejoin: miter; stroke-miterlimit: 10; fill: rgb(255,200,67); fill-rule: nonzero; opacity: 1;" transform="  matrix(1 0 0 1 0 0) "/>
	<circle cx="52.058" cy="26.458" r="20.578" style="stroke: none; stroke-width: 1; stroke-dasharray: none; stroke-linecap: butt; stroke-linejoin: miter; stroke-miterlimit: 10; fill: rgb(211,135,0); fill-rule: nonzero; opacity: 1;" transform="  matrix(1 0 0 1 0 0) "/>
	<path d="M 55.241 24.346 c -0.13 -0.027 -0.265 -0.041 -0.404 -0.041 h -5.563 c -0.436 0 -0.804 -0.368 -0.804 -0.804 v -4.316 c 0 -0.436 0.368 -0.804 0.804 -0.804 h 5.563 c 0.436 0 0.804 0.368 0.804 0.804 c 0 1.104 0.896 2 2 2 s 2 -0.896 2 -2 c 0 -2.649 -2.155 -4.804 -4.804 -4.804 h -0.781 v -1.473 c 0 -1.104 -0.896 -2 -2 -2 s -2 0.896 -2 2 v 1.473 h -0.782 c -2.648 0 -4.804 2.155 -4.804 4.804 v 4.316 c 0 2.511 1.943 4.554 4.4 4.763 c 0.13 0.027 0.265 0.041 0.404 0.041 h 5.563 c 0.436 0 0.804 0.368 0.804 0.804 v 4.316 c 0 0.436 -0.368 0.804 -0.804 0.804 h -5.563 c -0.436 0 -0.804 -0.368 -0.804 -0.804 c 0 -1.104 -0.896 -2 -2 -2 s -2 0.896 -2 2 c 0 2.649 2.155 4.804 4.804 4.804 h 0.782 v 1.779 c 0 1.104 0.896 2 2 2 s 2 -0.896 2 -2 v -1.779 h 0.781 c 2.648 0 4.804 -2.155 4.804 -4.804 v -4.316 C 59.641 26.598 57.698 24.555 55.241 24.346 z" style="stroke: none; stroke-width: 1; stroke-dasharray: none; stroke-linecap: butt; stroke-linejoin: miter; stroke-miterlimit: 10; fill: rgb(255,200,67); fill-rule: nonzero; opacity: 1;" transform=" matrix(1 0 0 1 0 0) " stroke-linecap="round" />
</g>
</svg>