<svg xmlns="http://www.w3.org/2000/svg" xmlns:xlink="http://www.w3.org/1999/xlink" version="1.1" width="256" height="256" viewBox="0 0 256 256" xml:space="preserve">

<defs>
</defs>
<g style="stroke: none; stroke-width: 0; stroke-dasharray: none; stroke-linecap: butt; stroke-linejoin: miter; stroke-miterlimit: 10; fill: none; fill-rule: nonzero; opacity: 1;" transform="translate(1.4065934065934016 1.4065934065934016) scale(2.81 2.81)" >
	<circle cx="45" cy="45" r="44" style="stroke: none; stroke-width: 1; stroke-dasharray: none; stroke-linecap: butt; stroke-linejoin: miter; stroke-miterlimit: 10; fill: rgb(220,244,219); fill-rule: nonzero; opacity: 1;" transform="  matrix(1 0 0 1 0 0) "/>
	<path d="M 45 90 C 20.187 90 0 69.813 0 45 C 0 20.187 20.187 0 45 0 c 24.813 0 45 20.187 45 45 C 90 69.813 69.813 90 45 90 z M 45 2 C 21.29 2 2 21.29 2 45 c 0 23.71 19.29 43 43 43 c 23.71 0 43 -19.29 43 -43 C 88 21.29 68.71 2 45 2 z" style="stroke: none; stroke-width: 1; stroke-dasharray: none; stroke-linecap: butt; stroke-linejoin: miter; stroke-miterlimit: 10; fill: rgb(0,0,0); fill-rule: nonzero; opacity: 1;" transform=" matrix(1 0 0 1 0 0) " stroke-linecap="round" />
	<path d="M 26.798 29.612 c -0.552 0 -1 -0.448 -1 -1 V 17.766 c 0 -0.552 0.448 -1 1 -1 s 1 0.448 1 1 v 10.846 C 27.798 29.164 27.35 29.612 26.798 29.612 z" style="stroke: none; stroke-width: 1; stroke-dasharray: none; stroke-linecap: butt; stroke-linejoin: miter; stroke-miterlimit: 10; fill: rgb(0,0,0); fill-rule: nonzero; opacity: 1;" transform=" matrix(1 0 0 1 0 0) " stroke-linecap="round" />
	<path d="M 33.375 24.188 h -6.577 c -0.552 0 -1 -0.448 -1 -1 s 0.448 -1 1 -1 h 6.577 c 0.552 0 1 0.448 1 1 S 33.927 24.188 33.375 24.188 z" style="stroke: none; stroke-width: 1; stroke-dasharray: none; stroke-linecap: butt; stroke-linejoin: miter; stroke-miterlimit: 10; fill: rgb(0,0,0); fill-rule: nonzero; opacity: 1;" transform=" matrix(1 0 0 1 0 0) " stroke-linecap="round" />
	<path d="M 33.375 29.612 c -0.552 0 -1 -0.448 -1 -1 V 17.766 c 0 -0.552 0.448 -1 1 -1 s 1 0.448 1 1 v 10.846 C 34.375 29.164 33.927 29.612 33.375 29.612 z" style="stroke: none; stroke-width: 1; stroke-dasharray: none; stroke-linecap: butt; stroke-linejoin: miter; stroke-miterlimit: 10; fill: rgb(0,0,0); fill-rule: nonzero; opacity: 1;" transform=" matrix(1 0 0 1 0 0) " stroke-linecap="round" />
	<path d="M 39.246 29.612 c -0.552 0 -1 -0.448 -1 -1 V 17.766 c 0 -0.552 0.448 -1 1 -1 s 1 0.448 1 1 v 10.846 C 40.246 29.164 39.798 29.612 39.246 29.612 z" style="stroke: none; stroke-width: 1; stroke-dasharray: none; stroke-linecap: butt; stroke-linejoin: miter; stroke-miterlimit: 10; fill: rgb(0,0,0); fill-rule: nonzero; opacity: 1;" transform=" matrix(1 0 0 1 0 0) " stroke-linecap="round" />
	<path d="M 48.778 29.612 h -2.056 c -1.841 0 -3.338 -1.498 -3.338 -3.338 v -6.169 c 0 -1.841 1.498 -3.338 3.338 -3.338 h 2.645 c 0.553 0 1 0.448 1 1 s -0.447 1 -1 1 h -2.645 c -0.738 0 -1.338 0.601 -1.338 1.338 v 6.169 c 0 0.738 0.601 1.338 1.338 1.338 h 2.056 c 0.737 0 1.338 -0.601 1.338 -1.338 v -2.085 H 47.75 c -0.553 0 -1 -0.448 -1 -1 s 0.447 -1 1 -1 h 3.366 c 0.553 0 1 0.448 1 1 v 3.085 C 52.116 28.114 50.619 29.612 48.778 29.612 z" style="stroke: none; stroke-width: 1; stroke-dasharray: none; stroke-linecap: butt; stroke-linejoin: miter; stroke-miterlimit: 10; fill: rgb(0,0,0); fill-rule: nonzero; opacity: 1;" transform=" matrix(1 0 0 1 0 0) " stroke-linecap="round" />
	<path d="M 56.625 29.612 c -0.553 0 -1 -0.448 -1 -1 V 17.766 c 0 -0.552 0.447 -1 1 -1 s 1 0.448 1 1 v 10.846 C 57.625 29.164 57.178 29.612 56.625 29.612 z" style="stroke: none; stroke-width: 1; stroke-dasharray: none; stroke-linecap: butt; stroke-linejoin: miter; stroke-miterlimit: 10; fill: rgb(0,0,0); fill-rule: nonzero; opacity: 1;" transform=" matrix(1 0 0 1 0 0) " stroke-linecap="round" />
	<path d="M 63.202 24.188 h -6.577 c -0.553 0 -1 -0.448 -1 -1 s 0.447 -1 1 -1 h 6.577 c 0.553 0 1 0.448 1 1 S 63.755 24.188 63.202 24.188 z" style="stroke: none; stroke-width: 1; stroke-dasharray: none; stroke-linecap: butt; stroke-linejoin: miter; stroke-miterlimit: 10; fill: rgb(0,0,0); fill-rule: nonzero; opacity: 1;" transform=" matrix(1 0 0 1 0 0) " stroke-linecap="round" />
	<path d="M 63.202 29.612 c -0.553 0 -1 -0.448 -1 -1 V 17.766 c 0 -0.552 0.447 -1 1 -1 s 1 0.448 1 1 v 10.846 C 64.202 29.164 63.755 29.612 63.202 29.612 z" style="stroke: none; stroke-width: 1; stroke-dasharray: none; stroke-linecap: butt; stroke-linejoin: miter; stroke-miterlimit: 10; fill: rgb(0,0,0); fill-rule: nonzero; opacity: 1;" transform=" matrix(1 0 0 1 0 0) " stroke-linecap="round" />
	<path d="M 14.478 47.237 h -2.055 c -1.841 0 -3.338 -1.498 -3.338 -3.339 v -6.169 c 0 -1.841 1.498 -3.339 3.338 -3.339 h 2.055 c 1.841 0 3.338 1.498 3.338 3.339 v 6.169 C 17.816 45.739 16.319 47.237 14.478 47.237 z M 12.423 36.391 c -0.738 0 -1.338 0.601 -1.338 1.339 v 6.169 c 0 0.738 0.601 1.339 1.338 1.339 h 2.055 c 0.738 0 1.338 -0.601 1.338 -1.339 v -6.169 c 0 -0.738 -0.601 -1.339 -1.338 -1.339 H 12.423 z" style="stroke: none; stroke-width: 1; stroke-dasharray: none; stroke-linecap: butt; stroke-linejoin: miter; stroke-miterlimit: 10; fill: rgb(0,0,0); fill-rule: nonzero; opacity: 1;" transform=" matrix(1 0 0 1 0 0) " stroke-linecap="round" />
	<path d="M 26.514 47.237 h -2.055 c -1.841 0 -3.338 -1.498 -3.338 -3.339 v -8.508 c 0 -0.552 0.448 -1 1 -1 s 1 0.448 1 1 v 8.508 c 0 0.738 0.601 1.339 1.338 1.339 h 2.055 c 0.738 0 1.338 -0.601 1.338 -1.339 v -8.508 c 0 -0.552 0.448 -1 1 -1 s 1 0.448 1 1 v 8.508 C 29.853 45.739 28.355 47.237 26.514 47.237 z" style="stroke: none; stroke-width: 1; stroke-dasharray: none; stroke-linecap: butt; stroke-linejoin: miter; stroke-miterlimit: 10; fill: rgb(0,0,0); fill-rule: nonzero; opacity: 1;" transform=" matrix(1 0 0 1 0 0) " stroke-linecap="round" />
	<path d="M 40.828 47.237 c -0.552 0 -1 -0.447 -1 -1 v -8.508 c 0 -0.738 -0.601 -1.339 -1.338 -1.339 h -2.055 c -0.738 0 -1.338 0.601 -1.338 1.339 v 8.508 c 0 0.553 -0.448 1 -1 1 s -1 -0.447 -1 -1 v -8.508 c 0 -1.841 1.498 -3.339 3.338 -3.339 h 2.055 c 1.841 0 3.338 1.498 3.338 3.339 v 8.508 C 41.828 46.79 41.38 47.237 40.828 47.237 z" style="stroke: none; stroke-width: 1; stroke-dasharray: none; stroke-linecap: butt; stroke-linejoin: miter; stroke-miterlimit: 10; fill: rgb(0,0,0); fill-rule: nonzero; opacity: 1;" transform=" matrix(1 0 0 1 0 0) " stroke-linecap="round" />
	<path d="M 40.828 41.814 h -6.732 c -0.552 0 -1 -0.448 -1 -1 s 0.448 -1 1 -1 h 6.732 c 0.552 0 1 0.448 1 1 S 41.38 41.814 40.828 41.814 z" style="stroke: none; stroke-width: 1; stroke-dasharray: none; stroke-linecap: butt; stroke-linejoin: miter; stroke-miterlimit: 10; fill: rgb(0,0,0); fill-rule: nonzero; opacity: 1;" transform=" matrix(1 0 0 1 0 0) " stroke-linecap="round" />
	<path d="M 50.948 47.237 H 46.14 c -0.552 0 -1 -0.447 -1 -1 V 35.391 c 0 -0.552 0.448 -1 1 -1 c 0.553 0 1 0.448 1 1 v 9.847 h 3.809 c 0.553 0 1 0.448 1 1 C 51.948 46.79 51.501 47.237 50.948 47.237 z" style="stroke: none; stroke-width: 1; stroke-dasharray: none; stroke-linecap: butt; stroke-linejoin: miter; stroke-miterlimit: 10; fill: rgb(0,0,0); fill-rule: nonzero; opacity: 1;" transform=" matrix(1 0 0 1 0 0) " stroke-linecap="round" />
	<path d="M 56.451 47.237 c -0.553 0 -1 -0.447 -1 -1 V 35.391 c 0 -0.552 0.447 -1 1 -1 s 1 0.448 1 1 v 10.847 C 57.451 46.79 57.004 47.237 56.451 47.237 z" style="stroke: none; stroke-width: 1; stroke-dasharray: none; stroke-linecap: butt; stroke-linejoin: miter; stroke-miterlimit: 10; fill: rgb(0,0,0); fill-rule: nonzero; opacity: 1;" transform=" matrix(1 0 0 1 0 0) " stroke-linecap="round" />
	<path d="M 68.026 36.391 h -6.843 c -0.553 0 -1 -0.448 -1 -1 s 0.447 -1 1 -1 h 6.843 c 0.553 0 1 0.448 1 1 S 68.579 36.391 68.026 36.391 z" style="stroke: none; stroke-width: 1; stroke-dasharray: none; stroke-linecap: butt; stroke-linejoin: miter; stroke-miterlimit: 10; fill: rgb(0,0,0); fill-rule: nonzero; opacity: 1;" transform=" matrix(1 0 0 1 0 0) " stroke-linecap="round" />
	<path d="M 64.605 47.237 c -0.553 0 -1 -0.447 -1 -1 V 35.391 c 0 -0.552 0.447 -1 1 -1 s 1 0.448 1 1 v 10.847 C 65.605 46.79 65.158 47.237 64.605 47.237 z" style="stroke: none; stroke-width: 1; stroke-dasharray: none; stroke-linecap: butt; stroke-linejoin: miter; stroke-miterlimit: 10; fill: rgb(0,0,0); fill-rule: nonzero; opacity: 1;" transform=" matrix(1 0 0 1 0 0) " stroke-linecap="round" />
	<path d="M 75.982 47.237 c -0.553 0 -1 -0.447 -1 -1 V 41.02 l -3.735 -5.033 c -0.329 -0.444 -0.236 -1.07 0.207 -1.399 c 0.442 -0.329 1.069 -0.236 1.398 0.207 l 3.933 5.298 c 0.128 0.172 0.197 0.381 0.197 0.596 v 5.548 C 76.982 46.79 76.535 47.237 75.982 47.237 z" style="stroke: none; stroke-width: 1; stroke-dasharray: none; stroke-linecap: butt; stroke-linejoin: miter; stroke-miterlimit: 10; fill: rgb(0,0,0); fill-rule: nonzero; opacity: 1;" transform=" matrix(1 0 0 1 0 0) " stroke-linecap="round" />
	<path d="M 75.981 41.689 c -0.207 0 -0.416 -0.064 -0.595 -0.197 c -0.443 -0.329 -0.536 -0.956 -0.207 -1.399 l 3.934 -5.298 c 0.33 -0.442 0.956 -0.536 1.398 -0.207 c 0.443 0.329 0.536 0.956 0.207 1.399 l -3.934 5.298 C 76.589 41.549 76.287 41.689 75.981 41.689 z" style="stroke: none; stroke-width: 1; stroke-dasharray: none; stroke-linecap: butt; stroke-linejoin: miter; stroke-miterlimit: 10; fill: rgb(0,0,0); fill-rule: nonzero; opacity: 1;" transform=" matrix(1 0 0 1 0 0) " stroke-linecap="round" />
	<path d="M 16.039 46.634 c -0.305 0 -0.606 -0.14 -0.803 -0.403 l -2.588 -3.472 c -0.33 -0.443 -0.239 -1.069 0.204 -1.399 c 0.443 -0.331 1.07 -0.239 1.399 0.204 l 2.588 3.472 c 0.33 0.443 0.239 1.07 -0.204 1.4 C 16.456 46.568 16.247 46.634 16.039 46.634 z" style="stroke: none; stroke-width: 1; stroke-dasharray: none; stroke-linecap: butt; stroke-linejoin: miter; stroke-miterlimit: 10; fill: rgb(0,0,0); fill-rule: nonzero; opacity: 1;" transform=" matrix(1 0 0 1 0 0) " stroke-linecap="round" />
	<path d="M 45.996 56.01 l 2.833 5.74 c 0.162 0.328 0.475 0.555 0.837 0.608 L 56 63.278 c 0.911 0.132 1.275 1.252 0.616 1.895 l -4.583 4.468 c -0.262 0.255 -0.381 0.623 -0.32 0.984 l 1.082 6.308 c 0.156 0.908 -0.797 1.6 -1.612 1.171 l -5.665 -2.978 c -0.324 -0.17 -0.71 -0.17 -1.034 0 l -5.665 2.978 c -0.815 0.429 -1.768 -0.264 -1.612 -1.171 l 1.082 -6.308 c 0.062 -0.36 -0.058 -0.728 -0.32 -0.984 l -4.583 -4.468 c -0.66 -0.643 -0.296 -1.763 0.616 -1.895 l 6.334 -0.92 c 0.362 -0.053 0.675 -0.28 0.837 -0.608 l 2.833 -5.74 C 44.411 55.184 45.589 55.184 45.996 56.01 z" style="stroke: none; stroke-width: 1; stroke-dasharray: none; stroke-linecap: butt; stroke-linejoin: miter; stroke-miterlimit: 10; fill: rgb(253,188,75); fill-rule: nonzero; opacity: 1;" transform=" matrix(1 0 0 1 0 0) " stroke-linecap="round" />
	<path d="M 38.298 79.234 c -0.436 0 -0.868 -0.137 -1.238 -0.405 c -0.655 -0.476 -0.978 -1.267 -0.841 -2.065 l 1.082 -6.308 c 0.007 -0.037 -0.005 -0.074 -0.033 -0.101 l -4.582 -4.466 c -0.581 -0.565 -0.785 -1.396 -0.534 -2.165 c 0.25 -0.771 0.904 -1.32 1.705 -1.436 l 6.333 -0.921 c 0.037 -0.006 0.068 -0.028 0.084 -0.062 l 2.832 -5.739 c 0.359 -0.726 1.084 -1.177 1.894 -1.177 s 1.535 0.451 1.894 1.176 c 0 0.001 0 0.001 0 0.001 l 2.832 5.74 c 0.017 0.032 0.047 0.055 0.084 0.061 l 6.334 0.921 c 0.801 0.115 1.454 0.666 1.704 1.436 c 0.251 0.77 0.046 1.6 -0.534 2.165 l -4.583 4.467 c -0.026 0.025 -0.038 0.063 -0.032 0.101 l 1.082 6.307 c 0.137 0.799 -0.186 1.59 -0.841 2.065 c -0.653 0.477 -1.506 0.536 -2.223 0.16 l -5.665 -2.979 c -0.032 -0.016 -0.07 -0.017 -0.104 0.001 l -5.665 2.978 C 38.971 79.153 38.634 79.234 38.298 79.234 z M 45 56.391 c -0.069 0 -0.09 0.042 -0.1 0.063 l -2.832 5.739 c -0.308 0.623 -0.902 1.055 -1.59 1.154 l -6.334 0.921 c -0.023 0.004 -0.069 0.01 -0.09 0.075 c -0.021 0.066 0.012 0.1 0.028 0.115 l 4.583 4.467 c 0.498 0.486 0.725 1.185 0.607 1.869 l -1.082 6.308 c -0.004 0.021 -0.012 0.068 0.044 0.109 c 0.057 0.041 0.097 0.019 0.117 0.009 l 5.666 -2.979 c 0.615 -0.324 1.349 -0.323 1.964 -0.001 l 5.667 2.979 c 0.019 0.01 0.061 0.03 0.116 -0.009 c 0.057 -0.041 0.049 -0.087 0.045 -0.109 l -1.082 -6.308 c -0.117 -0.686 0.109 -1.384 0.605 -1.868 l 4.584 -4.468 c 0.017 -0.016 0.05 -0.049 0.028 -0.115 c -0.021 -0.065 -0.066 -0.071 -0.089 -0.075 l -6.334 -0.921 c -0.688 -0.1 -1.282 -0.531 -1.59 -1.153 l -2.833 -5.74 C 45.09 56.433 45.069 56.391 45 56.391 z" style="stroke: none; stroke-width: 1; stroke-dasharray: none; stroke-linecap: butt; stroke-linejoin: miter; stroke-miterlimit: 10; fill: rgb(0,0,0); fill-rule: nonzero; opacity: 1;" transform=" matrix(1 0 0 1 0 0) " stroke-linecap="round" />
	<path d="M 69.256 51.373 l 2.149 4.355 c 0.123 0.249 0.36 0.421 0.635 0.461 l 4.806 0.698 c 0.691 0.1 0.968 0.95 0.467 1.438 l -3.477 3.39 c -0.199 0.194 -0.289 0.473 -0.242 0.746 l 0.821 4.786 c 0.118 0.689 -0.605 1.214 -1.223 0.889 l -4.298 -2.26 c -0.246 -0.129 -0.539 -0.129 -0.785 0 l -4.298 2.26 c -0.618 0.325 -1.341 -0.2 -1.223 -0.889 l 0.821 -4.786 c 0.047 -0.273 -0.044 -0.553 -0.242 -0.746 l -3.477 -3.39 c -0.5 -0.488 -0.224 -1.338 0.467 -1.438 l 4.806 -0.698 c 0.275 -0.04 0.512 -0.212 0.635 -0.461 l 2.149 -4.355 C 68.053 50.746 68.947 50.746 69.256 51.373 z" style="stroke: none; stroke-width: 1; stroke-dasharray: none; stroke-linecap: butt; stroke-linejoin: miter; stroke-miterlimit: 10; fill: rgb(253,188,75); fill-rule: nonzero; opacity: 1;" transform=" matrix(1 0 0 1 0 0) " stroke-linecap="round" />
	<path d="M 63.416 69.234 c -0.381 0 -0.759 -0.119 -1.082 -0.354 c -0.572 -0.416 -0.854 -1.106 -0.733 -1.803 l 0.807 -4.705 l -3.418 -3.332 c -0.506 -0.493 -0.685 -1.217 -0.467 -1.89 c 0.219 -0.672 0.788 -1.152 1.488 -1.254 l 4.724 -0.687 l 2.113 -4.28 c 0.313 -0.634 0.946 -1.027 1.652 -1.027 s 1.34 0.394 1.652 1.027 l 0 0 l 2.113 4.28 l 4.724 0.687 c 0.7 0.102 1.27 0.582 1.488 1.254 c 0.218 0.673 0.039 1.396 -0.467 1.89 l -3.418 3.332 l 0.807 4.705 c 0.12 0.696 -0.161 1.387 -0.733 1.803 c -0.571 0.415 -1.313 0.47 -1.941 0.14 L 68.5 66.8 l -4.225 2.221 C 64.003 69.164 63.709 69.234 63.416 69.234 z M 60.612 57.831 l 3.251 3.168 c 0.434 0.424 0.632 1.033 0.529 1.631 l -0.768 4.473 l 4.017 -2.111 c 0.539 -0.284 1.18 -0.282 1.715 -0.001 l 4.019 2.112 l -0.768 -4.473 c -0.103 -0.598 0.096 -1.207 0.529 -1.631 l 3.251 -3.168 l -4.491 -0.653 c -0.601 -0.087 -1.119 -0.464 -1.388 -1.007 l -2.009 -4.07 l -2.009 4.069 c -0.269 0.544 -0.787 0.921 -1.387 1.008 L 60.612 57.831 z M 72.302 55.285 h 0.01 H 72.302 z" style="stroke: none; stroke-width: 1; stroke-dasharray: none; stroke-linecap: butt; stroke-linejoin: miter; stroke-miterlimit: 10; fill: rgb(0,0,0); fill-rule: nonzero; opacity: 1;" transform=" matrix(1 0 0 1 0 0) " stroke-linecap="round" />
	<path d="M 22.256 51.373 l 2.149 4.355 c 0.123 0.249 0.36 0.421 0.635 0.461 l 4.806 0.698 c 0.691 0.1 0.968 0.95 0.467 1.438 l -3.477 3.39 c -0.199 0.194 -0.289 0.473 -0.242 0.746 l 0.821 4.786 c 0.118 0.689 -0.605 1.214 -1.223 0.889 l -4.298 -2.26 c -0.246 -0.129 -0.539 -0.129 -0.785 0 l -4.298 2.26 c -0.618 0.325 -1.341 -0.2 -1.223 -0.889 l 0.821 -4.786 c 0.047 -0.273 -0.044 -0.553 -0.242 -0.746 l -3.477 -3.39 c -0.5 -0.488 -0.224 -1.338 0.467 -1.438 l 4.806 -0.698 c 0.275 -0.04 0.512 -0.212 0.635 -0.461 l 2.149 -4.355 C 21.053 50.746 21.947 50.746 22.256 51.373 z" style="stroke: none; stroke-width: 1; stroke-dasharray: none; stroke-linecap: butt; stroke-linejoin: miter; stroke-miterlimit: 10; fill: rgb(253,188,75); fill-rule: nonzero; opacity: 1;" transform=" matrix(1 0 0 1 0 0) " stroke-linecap="round" />
	<path d="M 26.584 69.234 c -0.293 0 -0.587 -0.07 -0.859 -0.214 L 21.5 66.8 l -4.225 2.221 c -0.625 0.33 -1.37 0.275 -1.941 -0.14 c -0.572 -0.416 -0.853 -1.106 -0.733 -1.803 l 0.807 -4.705 l -3.419 -3.332 c -0.506 -0.494 -0.684 -1.219 -0.466 -1.891 c 0.219 -0.671 0.789 -1.151 1.487 -1.253 l 4.725 -0.687 l 2.113 -4.28 c 0.312 -0.634 0.945 -1.027 1.652 -1.027 s 1.34 0.394 1.653 1.027 l 2.112 4.28 l 4.724 0.687 c 0.699 0.102 1.269 0.582 1.488 1.253 c 0.218 0.672 0.04 1.396 -0.465 1.891 l -3.419 3.332 l 0.807 4.705 c 0.119 0.696 -0.162 1.387 -0.733 1.803 C 27.343 69.115 26.965 69.234 26.584 69.234 z M 13.612 57.831 l 3.25 3.168 c 0.434 0.423 0.633 1.032 0.53 1.631 l -0.767 4.473 l 4.017 -2.111 c 0.537 -0.283 1.178 -0.282 1.714 -0.001 l 4.017 2.112 l -0.767 -4.473 c -0.103 -0.599 0.096 -1.208 0.531 -1.632 l 3.25 -3.167 l -4.491 -0.653 c -0.602 -0.087 -1.121 -0.465 -1.389 -1.009 L 21.5 52.101 l -2.009 4.069 c -0.267 0.543 -0.786 0.921 -1.387 1.008 L 13.612 57.831 z M 29.702 57.876 h 0.01 H 29.702 z M 21.359 51.815 L 21.359 51.815 L 21.359 51.815 C 21.359 51.815 21.359 51.815 21.359 51.815 z" style="stroke: none; stroke-width: 1; stroke-dasharray: none; stroke-linecap: butt; stroke-linejoin: miter; stroke-miterlimit: 10; fill: rgb(0,0,0); fill-rule: nonzero; opacity: 1;" transform=" matrix(1 0 0 1 0 0) " stroke-linecap="round" />
</g>
</svg>