<svg xmlns="http://www.w3.org/2000/svg" xmlns:xlink="http://www.w3.org/1999/xlink" version="1.1" width="100" height="100" viewBox="0 0 256 256" xml:space="preserve">

<defs>
</defs>
<g style="stroke: none; stroke-width: 0; stroke-dasharray: none; stroke-linecap: butt; stroke-linejoin: miter; stroke-miterlimit: 10; fill: none; fill-rule: nonzero; opacity: 1;" transform="translate(1.4065934065934016 1.4065934065934016) scale(2.81 2.81)" >
	<path d="M 49.526 2.698 l 5.705 6.768 c 1.357 1.61 3.467 2.378 5.541 2.017 l 8.721 -1.517 c 3.615 -0.629 6.926 2.149 6.934 5.819 l 0.02 8.852 c 0.005 2.105 1.127 4.05 2.948 5.107 l 7.656 4.443 c 3.174 1.842 3.924 6.098 1.572 8.915 l -5.674 6.793 c -1.35 1.616 -1.74 3.827 -1.024 5.807 l 3.009 8.325 c 1.247 3.451 -0.914 7.194 -4.526 7.839 l -8.714 1.557 c -2.073 0.37 -3.793 1.813 -4.517 3.79 l -3.046 8.311 c -1.263 3.446 -5.324 4.924 -8.506 3.096 l -7.676 -4.409 c -1.826 -1.049 -4.071 -1.049 -5.897 0 l -7.676 4.409 c -3.182 1.828 -7.243 0.35 -8.506 -3.096 l -3.046 -8.311 c -0.725 -1.977 -2.444 -3.42 -4.517 -3.79 l -8.714 -1.557 c -3.613 -0.645 -5.773 -4.388 -4.526 -7.839 L 8.076 55.7 c 0.716 -1.98 0.326 -4.191 -1.024 -5.807 l -5.674 -6.793 c -2.353 -2.816 -1.602 -7.073 1.572 -8.915 l 7.656 -4.443 c 1.821 -1.057 2.944 -3.001 2.948 -5.107 l 0.02 -8.852 c 0.008 -3.67 3.319 -6.448 6.934 -5.819 l 8.721 1.517 c 2.074 0.361 4.184 -0.407 5.541 -2.017 l 5.705 -6.768 C 42.839 -0.108 47.161 -0.108 49.526 2.698 z" style="stroke: none; stroke-width: 1; stroke-dasharray: none; stroke-linecap: butt; stroke-linejoin: miter; stroke-miterlimit: 10; fill: rgb(234,101,101); fill-rule: nonzero; opacity: 1;" transform=" matrix(1 0 0 1 0 0) " stroke-linecap="round" />
	<path d="M 53.412 51.24 c -0.174 0 -0.347 -0.03 -0.513 -0.091 c -0.374 -0.136 -0.679 -0.415 -0.847 -0.775 l -6.938 -14.88 c -0.35 -0.75 -0.025 -1.643 0.726 -1.993 c 0.753 -0.351 1.643 -0.025 1.993 0.726 l 6.305 13.521 l 5.237 -2.442 c 0.751 -0.352 1.643 -0.025 1.993 0.726 s 0.025 1.644 -0.726 1.993 L 54.046 51.1 C 53.846 51.193 53.629 51.24 53.412 51.24 z" style="stroke: none; stroke-width: 1; stroke-dasharray: none; stroke-linecap: butt; stroke-linejoin: miter; stroke-miterlimit: 10; fill: rgb(255,255,255); fill-rule: nonzero; opacity: 1;" transform=" matrix(1 0 0 1 0 0) " stroke-linecap="round" />
	<path d="M 65.903 45.416 c -0.174 0 -0.347 -0.03 -0.513 -0.09 c -0.374 -0.136 -0.679 -0.415 -0.847 -0.776 l -6.938 -14.88 c -0.351 -0.75 -0.025 -1.643 0.726 -1.993 l 6.597 -3.076 c 0.753 -0.352 1.643 -0.025 1.993 0.726 s 0.025 1.643 -0.726 1.993 l -5.237 2.442 l 5.671 12.161 l 5.237 -2.442 c 0.752 -0.351 1.643 -0.025 1.993 0.726 s 0.025 1.643 -0.726 1.993 l -6.597 3.076 C 66.337 45.369 66.12 45.416 65.903 45.416 z" style="stroke: none; stroke-width: 1; stroke-dasharray: none; stroke-linecap: butt; stroke-linejoin: miter; stroke-miterlimit: 10; fill: rgb(255,255,255); fill-rule: nonzero; opacity: 1;" transform=" matrix(1 0 0 1 0 0) " stroke-linecap="round" />
	<path d="M 62.436 37.976 c -0.564 0 -1.105 -0.321 -1.36 -0.867 c -0.351 -0.75 -0.025 -1.643 0.726 -1.993 l 4.314 -2.012 c 0.751 -0.352 1.643 -0.025 1.993 0.726 c 0.351 0.75 0.025 1.643 -0.726 1.993 l -4.314 2.012 C 62.863 37.931 62.647 37.976 62.436 37.976 z" style="stroke: none; stroke-width: 1; stroke-dasharray: none; stroke-linecap: butt; stroke-linejoin: miter; stroke-miterlimit: 10; fill: rgb(255,255,255); fill-rule: nonzero; opacity: 1;" transform=" matrix(1 0 0 1 0 0) " stroke-linecap="round" />
	<path d="M 37.5 58.661 c -0.565 0 -1.106 -0.32 -1.36 -0.866 l -5.443 -11.672 c -1.174 -2.518 -0.081 -5.523 2.438 -6.698 l 2.82 -1.314 c 1.217 -0.567 2.584 -0.625 3.852 -0.164 c 1.268 0.461 2.278 1.385 2.845 2.602 l 5.442 11.672 c 0.351 0.751 0.025 1.644 -0.726 1.993 c -0.752 0.352 -1.644 0.024 -1.993 -0.726 l -5.442 -11.672 c -0.475 -1.019 -1.69 -1.46 -2.711 -0.987 l -2.819 1.314 c -1.019 0.476 -1.462 1.692 -0.987 2.711 l 5.443 11.672 c 0.35 0.751 0.025 1.644 -0.726 1.993 C 37.928 58.616 37.712 58.661 37.5 58.661 z" style="stroke: none; stroke-width: 1; stroke-dasharray: none; stroke-linecap: butt; stroke-linejoin: miter; stroke-miterlimit: 10; fill: rgb(255,255,255); fill-rule: nonzero; opacity: 1;" transform=" matrix(1 0 0 1 0 0) " stroke-linecap="round" />
	<path d="M 34.031 51.221 c -0.565 0 -1.106 -0.32 -1.36 -0.866 c -0.35 -0.751 -0.025 -1.644 0.726 -1.993 l 9.235 -4.307 c 0.751 -0.35 1.644 -0.025 1.993 0.726 c 0.35 0.75 0.025 1.644 -0.726 1.993 l -9.235 4.307 C 34.458 51.176 34.243 51.221 34.031 51.221 z" style="stroke: none; stroke-width: 1; stroke-dasharray: none; stroke-linecap: butt; stroke-linejoin: miter; stroke-miterlimit: 10; fill: rgb(255,255,255); fill-rule: nonzero; opacity: 1;" transform=" matrix(1 0 0 1 0 0) " stroke-linecap="round" />
	<path d="M 23.662 65.54 c -0.565 0 -1.106 -0.32 -1.36 -0.866 c -0.35 -0.751 -0.025 -1.644 0.726 -1.993 l 3.808 -1.775 c 1.35 -0.63 1.936 -2.24 1.307 -3.59 c -0.303 -0.649 -0.845 -1.144 -1.526 -1.392 c -0.681 -0.249 -1.415 -0.219 -2.063 0.085 l -0.442 0.206 c -2.848 1.332 -6.249 0.094 -7.578 -2.757 c -1.328 -2.849 -0.091 -6.248 2.757 -7.576 l 2.405 -1.122 c 0.752 -0.349 1.645 -0.025 1.994 0.725 c 0.35 0.75 0.025 1.643 -0.725 1.994 l -2.405 1.122 c -1.35 0.63 -1.936 2.24 -1.307 3.59 c 0.63 1.349 2.239 1.938 3.59 1.307 l 0.441 -0.206 c 2.85 -1.333 6.249 -0.093 7.578 2.757 c 1.329 2.849 0.091 6.248 -2.758 7.576 l -3.808 1.775 C 24.089 65.495 23.874 65.54 23.662 65.54 z" style="stroke: none; stroke-width: 1; stroke-dasharray: none; stroke-linecap: butt; stroke-linejoin: miter; stroke-miterlimit: 10; fill: rgb(255,255,255); fill-rule: nonzero; opacity: 1;" transform=" matrix(1 0 0 1 0 0) " stroke-linecap="round" />
</g>
</svg>